<svg id="visual" viewBox="0 0 900 600" width="900" height="600" xmlns="http://www.w3.org/2000/svg" xmlns:xlink="http://www.w3.org/1999/xlink" version="1.1"><path d="M0 373L16.7 379.8C33.3 386.7 66.7 400.3 100 408C133.3 415.7 166.7 417.3 200 409.2C233.3 401 266.7 383 300 379C333.3 375 366.7 385 400 392C433.3 399 466.7 403 500 397.8C533.3 392.7 566.7 378.3 600 369.2C633.3 360 666.7 356 700 364C733.3 372 766.7 392 800 401.8C833.3 411.7 866.7 411.3 883.3 411.2L900 411L900 601L883.3 601C866.7 601 833.3 601 800 601C766.7 601 733.3 601 700 601C666.7 601 633.3 601 600 601C566.7 601 533.3 601 500 601C466.7 601 433.3 601 400 601C366.7 601 333.3 601 300 601C266.7 601 233.3 601 200 601C166.7 601 133.3 601 100 601C66.7 601 33.3 601 16.7 601L0 601Z" fill="#ec5098"></path><path d="M0 446L16.7 450C33.3 454 66.7 462 100 453.7C133.3 445.3 166.7 420.7 200 422.2C233.3 423.7 266.7 451.3 300 456.8C333.3 462.3 366.7 445.7 400 439.3C433.3 433 466.7 437 500 436C533.3 435 566.7 429 600 424.2C633.3 419.3 666.7 415.7 700 411.7C733.3 407.7 766.7 403.3 800 413.7C833.3 424 866.7 449 883.3 461.5L900 474L900 601L883.3 601C866.7 601 833.3 601 800 601C766.7 601 733.3 601 700 601C666.7 601 633.3 601 600 601C566.7 601 533.3 601 500 601C466.7 601 433.3 601 400 601C366.7 601 333.3 601 300 601C266.7 601 233.3 601 200 601C166.7 601 133.3 601 100 601C66.7 601 33.3 601 16.7 601L0 601Z" fill="#d54285"></path><path d="M0 499L16.7 497.2C33.3 495.3 66.7 491.7 100 490.5C133.3 489.3 166.7 490.7 200 487.8C233.3 485 266.7 478 300 471C333.3 464 366.7 457 400 452.2C433.3 447.3 466.7 444.7 500 446.3C533.3 448 566.7 454 600 454.8C633.3 455.7 666.7 451.3 700 456.2C733.3 461 766.7 475 800 482.2C833.3 489.3 866.7 489.7 883.3 489.8L900 490L900 601L883.3 601C866.7 601 833.3 601 800 601C766.7 601 733.3 601 700 601C666.7 601 633.3 601 600 601C566.7 601 533.3 601 500 601C466.7 601 433.3 601 400 601C366.7 601 333.3 601 300 601C266.7 601 233.3 601 200 601C166.7 601 133.3 601 100 601C66.7 601 33.3 601 16.7 601L0 601Z" fill="#bf3473"></path><path d="M0 482L16.7 491.8C33.3 501.7 66.7 521.3 100 524.3C133.3 527.3 166.7 513.7 200 504.7C233.3 495.7 266.7 491.3 300 488.8C333.3 486.3 366.7 485.7 400 486.2C433.3 486.7 466.7 488.3 500 497.5C533.3 506.7 566.7 523.3 600 529.7C633.3 536 666.7 532 700 522.3C733.3 512.7 766.7 497.3 800 492.3C833.3 487.3 866.7 492.7 883.3 495.3L900 498L900 601L883.3 601C866.7 601 833.3 601 800 601C766.7 601 733.3 601 700 601C666.7 601 633.3 601 600 601C566.7 601 533.3 601 500 601C466.7 601 433.3 601 400 601C366.7 601 333.3 601 300 601C266.7 601 233.3 601 200 601C166.7 601 133.3 601 100 601C66.7 601 33.3 601 16.7 601L0 601Z" fill="#a92662"></path><path d="M0 526L16.7 533.7C33.3 541.3 66.7 556.7 100 558.5C133.3 560.3 166.7 548.7 200 543.7C233.3 538.7 266.7 540.3 300 545.8C333.3 551.3 366.7 560.7 400 565.3C433.3 570 466.7 570 500 562.5C533.3 555 566.7 540 600 538.2C633.3 536.3 666.7 547.7 700 547.8C733.3 548 766.7 537 800 531.7C833.3 526.3 866.7 526.7 883.3 526.8L900 527L900 601L883.3 601C866.7 601 833.3 601 800 601C766.7 601 733.3 601 700 601C666.7 601 633.3 601 600 601C566.7 601 533.3 601 500 601C466.7 601 433.3 601 400 601C366.7 601 333.3 601 300 601C266.7 601 233.3 601 200 601C166.7 601 133.3 601 100 601C66.7 601 33.3 601 16.7 601L0 601Z" fill="#941751"></path></svg>