<svg id="visual" viewBox="0 0 900 600" width="900" height="600" xmlns="http://www.w3.org/2000/svg" xmlns:xlink="http://www.w3.org/1999/xlink" version="1.1"><path d="M0 444L21.5 429.2C43 414.3 86 384.7 128.8 381.8C171.7 379 214.3 403 257.2 412.7C300 422.3 343 417.7 385.8 416.7C428.7 415.7 471.3 418.3 514.2 413.2C557 408 600 395 642.8 384.5C685.7 374 728.3 366 771.2 372C814 378 857 398 878.5 408L900 418L900 601L878.5 601C857 601 814 601 771.2 601C728.3 601 685.7 601 642.8 601C600 601 557 601 514.2 601C471.3 601 428.7 601 385.8 601C343 601 300 601 257.2 601C214.3 601 171.7 601 128.8 601C86 601 43 601 21.5 601L0 601Z" fill="#ec5098"></path><path d="M0 410L21.5 407.2C43 404.3 86 398.7 128.8 404.3C171.7 410 214.3 427 257.2 427C300 427 343 410 385.8 413.8C428.7 417.7 471.3 442.3 514.2 451.2C557 460 600 453 642.8 449.2C685.7 445.3 728.3 444.7 771.2 449.8C814 455 857 466 878.5 471.5L900 477L900 601L878.5 601C857 601 814 601 771.2 601C728.3 601 685.7 601 642.8 601C600 601 557 601 514.2 601C471.3 601 428.7 601 385.8 601C343 601 300 601 257.2 601C214.3 601 171.7 601 128.8 601C86 601 43 601 21.5 601L0 601Z" fill="#e3468c"></path><path d="M0 459L21.5 465.8C43 472.7 86 486.3 128.8 489.5C171.7 492.7 214.3 485.3 257.2 478C300 470.7 343 463.3 385.8 468.3C428.7 473.3 471.3 490.7 514.2 493.2C557 495.7 600 483.3 642.8 478.5C685.7 473.7 728.3 476.3 771.2 474C814 471.7 857 464.3 878.5 460.7L900 457L900 601L878.5 601C857 601 814 601 771.2 601C728.3 601 685.7 601 642.8 601C600 601 557 601 514.2 601C471.3 601 428.7 601 385.8 601C343 601 300 601 257.2 601C214.3 601 171.7 601 128.8 601C86 601 43 601 21.5 601L0 601Z" fill="#d93b80"></path><path d="M0 503L21.5 509.5C43 516 86 529 128.8 528C171.7 527 214.3 512 257.2 501.8C300 491.7 343 486.3 385.8 491.7C428.7 497 471.3 513 514.2 517.3C557 521.7 600 514.3 642.8 506.5C685.7 498.7 728.3 490.3 771.2 490.5C814 490.7 857 499.3 878.5 503.7L900 508L900 601L878.5 601C857 601 814 601 771.2 601C728.3 601 685.7 601 642.8 601C600 601 557 601 514.2 601C471.3 601 428.7 601 385.8 601C343 601 300 601 257.2 601C214.3 601 171.7 601 128.8 601C86 601 43 601 21.5 601L0 601Z" fill="#d03074"></path><path d="M0 566L21.5 561.3C43 556.7 86 547.3 128.8 548C171.7 548.7 214.3 559.3 257.2 560C300 560.7 343 551.3 385.8 548.2C428.7 545 471.3 548 514.2 549C557 550 600 549 642.8 551C685.7 553 728.3 558 771.2 557.3C814 556.7 857 550.3 878.5 547.2L900 544L900 601L878.5 601C857 601 814 601 771.2 601C728.3 601 685.7 601 642.8 601C600 601 557 601 514.2 601C471.3 601 428.7 601 385.8 601C343 601 300 601 257.2 601C214.3 601 171.7 601 128.8 601C86 601 43 601 21.5 601L0 601Z" fill="#c62368"></path></svg>