<svg id="visual" viewBox="0 0 900 600" width="900" height="600" xmlns="http://www.w3.org/2000/svg" xmlns:xlink="http://www.w3.org/1999/xlink" version="1.1"><path d="M0 289L21.5 276.2C43 263.3 86 237.7 128.8 238.5C171.7 239.3 214.3 266.7 257.2 264.5C300 262.3 343 230.7 385.8 226C428.7 221.3 471.3 243.7 514.2 254.5C557 265.3 600 264.7 642.8 263.3C685.7 262 728.3 260 771.2 261.3C814 262.7 857 267.3 878.5 269.7L900 272L900 0L878.5 0C857 0 814 0 771.2 0C728.3 0 685.7 0 642.8 0C600 0 557 0 514.2 0C471.3 0 428.7 0 385.8 0C343 0 300 0 257.2 0C214.3 0 171.7 0 128.8 0C86 0 43 0 21.5 0L0 0Z" fill="#c62368"></path><path d="M0 212L21.5 202C43 192 86 172 128.8 164.8C171.7 157.7 214.3 163.3 257.2 178C300 192.7 343 216.3 385.8 223.2C428.7 230 471.3 220 514.2 221.3C557 222.7 600 235.3 642.8 227.3C685.7 219.3 728.3 190.7 771.2 177C814 163.3 857 164.7 878.5 165.3L900 166L900 0L878.5 0C857 0 814 0 771.2 0C728.3 0 685.7 0 642.8 0C600 0 557 0 514.2 0C471.3 0 428.7 0 385.8 0C343 0 300 0 257.2 0C214.3 0 171.7 0 128.8 0C86 0 43 0 21.5 0L0 0Z" fill="#d33f7c"></path><path d="M0 193L21.5 189.2C43 185.3 86 177.7 128.8 172C171.7 166.3 214.3 162.7 257.2 158.8C300 155 343 151 385.8 145.8C428.7 140.7 471.3 134.3 514.2 143.7C557 153 600 178 642.8 189C685.7 200 728.3 197 771.2 181.3C814 165.7 857 137.3 878.5 123.2L900 109L900 0L878.5 0C857 0 814 0 771.2 0C728.3 0 685.7 0 642.8 0C600 0 557 0 514.2 0C471.3 0 428.7 0 385.8 0C343 0 300 0 257.2 0C214.3 0 171.7 0 128.8 0C86 0 43 0 21.5 0L0 0Z" fill="#e05690"></path><path d="M0 96L21.5 93C43 90 86 84 128.8 81.5C171.7 79 214.3 80 257.2 89.7C300 99.3 343 117.7 385.8 123.2C428.7 128.7 471.3 121.3 514.2 120.5C557 119.7 600 125.3 642.8 120.5C685.7 115.7 728.3 100.3 771.2 89.5C814 78.7 857 72.3 878.5 69.2L900 66L900 0L878.5 0C857 0 814 0 771.2 0C728.3 0 685.7 0 642.8 0C600 0 557 0 514.2 0C471.3 0 428.7 0 385.8 0C343 0 300 0 257.2 0C214.3 0 171.7 0 128.8 0C86 0 43 0 21.5 0L0 0Z" fill="#ec6ba4"></path><path d="M0 84L21.5 76.2C43 68.3 86 52.7 128.8 51.7C171.7 50.7 214.3 64.3 257.2 71C300 77.7 343 77.3 385.8 69.7C428.7 62 471.3 47 514.2 45.2C557 43.3 600 54.7 642.8 58.5C685.7 62.3 728.3 58.7 771.2 59.7C814 60.7 857 66.3 878.5 69.2L900 72L900 0L878.5 0C857 0 814 0 771.2 0C728.3 0 685.7 0 642.8 0C600 0 557 0 514.2 0C471.3 0 428.7 0 385.8 0C343 0 300 0 257.2 0C214.3 0 171.7 0 128.8 0C86 0 43 0 21.5 0L0 0Z" fill="#f880b8"></path></svg>