<?xml version="1.0" standalone="no"?>
<!DOCTYPE svg PUBLIC "-//W3C//DTD SVG 20010904//EN"
"http://www.w3.org/TR/2001/REC-SVG-20010904/DTD/svg10.dtd">
<svg version="1.0" xmlns="http://www.w3.org/2000/svg"
width="512.000000pt" height="512.000000pt" viewBox="0 0 512.000000 512.000000"
preserveAspectRatio="xMidYMid meet">

<g transform="translate(0.000000,512.000000) scale(0.100000,-0.100000)"
fill="#ec5098" stroke="none">
<path class="svg-logo-path" d="M4430 4142 c0 -4 47 -54 105 -112 58 -58 105 -108 105 -111 0 -8
-1169 -1383 -1179 -1386 -5 -3 -106 309 -449 1392 l-45 140 -559 -1120 c-419
-837 -562 -1115 -569 -1103 -5 9 -144 368 -309 798 -165 431 -304 789 -309
797 -5 10 -172 -188 -605 -723 -329 -405 -600 -743 -603 -751 -4 -11 28 -13
198 -11 l203 3 353 415 c194 228 357 416 361 417 4 1 157 -405 341 -902 184
-498 336 -905 338 -905 1 0 248 489 547 1087 l543 1088 46 -140 c25 -77 118
-369 207 -650 89 -280 165 -513 169 -517 3 -4 359 407 790 913 l784 921 114
-114 113 -113 0 348 0 347 -345 0 c-190 0 -345 -3 -345 -8z"/>
</g>
</svg>
